# xmcd CD database file
#
# Track frame offsets:
#	150
#	27956
#	41960
#	58084
#	73532
#	88888
#	119182
#	141929
#	166410
#	190412
#	225130
#
# Disc length: 3324 seconds
#
# Revision: 0
# Processed by: cddbd v1.5.1PL0 Copyright (c) Steve Scherf et al.
# Submitted via: CDex 1.51
#
DISCID=a10cfa0b
DTITLE=栗コーダーカルテット - 公式 BOOTLEG ２×２ Disc1
DYEAR=2005
DGENRE=Instrumental Pop
TTITLE0=海を渡る風
TTITLE1=Baby, You're My Distiny
TTITLE2=Avarandado
TTITLE3=けむり
TTITLE4=Hei Lassie
TTITLE5=もうひとりの博士
TTITLE6=ハワイの結婚のうた Hawaiian Wedding Song
TTITLE7=平和に生きる権利 El Derecho De Vivir En Paz
TTITLE8=くつやのマルチン
TTITLE9=La Partida
TTITLE10=Some Happy Day
EXTD=YEAR: 2005
EXTT0=
EXTT1=
EXTT2=
EXTT3=
EXTT4=
EXTT5=
EXTT6=
EXTT7=
EXTT8=
EXTT9=
EXTT10=
PLAYORDER=
